<svg viewBox="0 0 7.36587 7.03719">
  <path style="line-height:normal;font-variant-ligatures:normal;font-variant-position:normal;font-variant-caps:normal;font-variant-numeric:normal;font-variant-alternates:normal;font-feature-settings:normal;text-indent:0;text-align:start;text-decoration-line:none;text-decoration-style:solid;text-decoration-color:#000;text-transform:none;text-orientation:mixed;shape-padding:0;isolation:auto;mix-blend-mode:normal" fill="#aaa" d="M3.68955.00003a.38227.38214 0 0 0-.0393.0015.38227.38214 0 0 0-.31002.21298L2.4107 2.09748l-2.08102.30255a.38227.38214 0 0 0-.21298.65336l1.50727 1.46597-.35579 2.07157a.38227.38214 0 0 0 .55434.40257l1.86107-.97831 1.86108.9783a.38227.38214 0 0 0 .55434-.40256l-.3553-2.07157L7.24898 3.0534a.38227.38214 0 0 0-.21148-.65336l-2.08102-.30255L4.02694.21451a.38227.38214 0 0 0-.33738-.21447z" color="#000" font-family="sans-serif" font-weight="400" overflow="visible" paint-order="stroke fill markers" white-space="normal"/>
</svg>
